<mxfile host="Electron" modified="2023-11-05T02:49:29.495Z" agent="Mozilla/5.0 (Windows NT 10.0; Win64; x64) AppleWebKit/537.36 (KHTML, like Gecko) draw.io/22.0.3 Chrome/114.0.5735.289 Electron/25.8.4 Safari/537.36" etag="mc4xkgd-X6TYGfWlAek-" version="22.0.3" type="device">
  <diagram name="Page-1" id="WW8FajRCYxsxM0iwLLTD">
    <mxGraphModel dx="1098" dy="828" grid="1" gridSize="10" guides="1" tooltips="1" connect="1" arrows="1" fold="1" page="1" pageScale="1" pageWidth="850" pageHeight="1100" math="0" shadow="0">
      <root>
        <mxCell id="0" />
        <mxCell id="1" parent="0" />
        <mxCell id="zcIFbP8Z36xk4Khot3Q5-1" value="" style="rounded=0;whiteSpace=wrap;html=1;" vertex="1" parent="1">
          <mxGeometry width="850" height="90" as="geometry" />
        </mxCell>
        <mxCell id="zcIFbP8Z36xk4Khot3Q5-2" style="edgeStyle=orthogonalEdgeStyle;rounded=0;orthogonalLoop=1;jettySize=auto;html=1;exitX=0.5;exitY=1;exitDx=0;exitDy=0;" edge="1" parent="1" source="zcIFbP8Z36xk4Khot3Q5-1" target="zcIFbP8Z36xk4Khot3Q5-1">
          <mxGeometry relative="1" as="geometry" />
        </mxCell>
        <mxCell id="zcIFbP8Z36xk4Khot3Q5-5" value="" style="verticalLabelPosition=bottom;shadow=0;dashed=0;align=center;html=1;verticalAlign=top;strokeWidth=1;shape=mxgraph.mockup.graphics.simpleIcon;strokeColor=#999999;fontSize=13;fontColor=#0066CC;" vertex="1" parent="1">
          <mxGeometry x="30" y="20" width="50" height="50" as="geometry" />
        </mxCell>
        <mxCell id="zcIFbP8Z36xk4Khot3Q5-6" value="Home" style="text;html=1;strokeColor=none;fillColor=none;align=center;verticalAlign=middle;whiteSpace=wrap;rounded=0;" vertex="1" parent="1">
          <mxGeometry x="385" y="30" width="80" height="30" as="geometry" />
        </mxCell>
        <mxCell id="zcIFbP8Z36xk4Khot3Q5-7" value="Services" style="text;html=1;strokeColor=none;fillColor=none;align=center;verticalAlign=middle;whiteSpace=wrap;rounded=0;" vertex="1" parent="1">
          <mxGeometry x="610" y="30" width="80" height="30" as="geometry" />
        </mxCell>
        <mxCell id="zcIFbP8Z36xk4Khot3Q5-8" value="About Us" style="text;html=1;strokeColor=none;fillColor=none;align=center;verticalAlign=middle;whiteSpace=wrap;rounded=0;" vertex="1" parent="1">
          <mxGeometry x="500" y="30" width="80" height="30" as="geometry" />
        </mxCell>
        <mxCell id="zcIFbP8Z36xk4Khot3Q5-9" value="Contact Us" style="text;html=1;strokeColor=none;fillColor=none;align=center;verticalAlign=middle;whiteSpace=wrap;rounded=0;" vertex="1" parent="1">
          <mxGeometry x="720" y="30" width="80" height="30" as="geometry" />
        </mxCell>
        <mxCell id="zcIFbP8Z36xk4Khot3Q5-10" value="" style="verticalLabelPosition=bottom;shadow=0;dashed=0;align=center;html=1;verticalAlign=top;strokeWidth=1;shape=mxgraph.mockup.graphics.simpleIcon;strokeColor=#999999;fontSize=13;fontColor=#0066CC;" vertex="1" parent="1">
          <mxGeometry y="90" width="850" height="360" as="geometry" />
        </mxCell>
        <mxCell id="zcIFbP8Z36xk4Khot3Q5-12" value="" style="shape=or;whiteSpace=wrap;html=1;" vertex="1" parent="1">
          <mxGeometry y="90" width="300" height="360" as="geometry" />
        </mxCell>
        <mxCell id="zcIFbP8Z36xk4Khot3Q5-13" value="&lt;h1&gt;Heading&lt;/h1&gt;&lt;p&gt;Lorem ipsum dolor sit amet, consectetur adipisicing elit, sed do eiusmod tempor incididunt ut labore et dolore magna aliqua.&lt;/p&gt;" style="text;html=1;strokeColor=none;fillColor=none;spacing=5;spacingTop=-20;whiteSpace=wrap;overflow=hidden;rounded=0;" vertex="1" parent="1">
          <mxGeometry x="40" y="200" width="220" height="140" as="geometry" />
        </mxCell>
        <mxCell id="zcIFbP8Z36xk4Khot3Q5-16" value="&lt;h1&gt;Heading&lt;/h1&gt;&lt;p&gt;Lorem ipsum dolor sit amet, consectetur adipisicing elit, sed do eiusmod tempor incididunt ut labore et dolore magna aliqua.&lt;/p&gt;" style="text;html=1;strokeColor=none;fillColor=none;spacing=5;spacingTop=-20;whiteSpace=wrap;overflow=hidden;rounded=0;" vertex="1" parent="1">
          <mxGeometry x="390" y="550" width="340" height="110" as="geometry" />
        </mxCell>
        <mxCell id="zcIFbP8Z36xk4Khot3Q5-17" value="Our story" style="text;html=1;strokeColor=none;fillColor=none;align=center;verticalAlign=middle;whiteSpace=wrap;rounded=0;" vertex="1" parent="1">
          <mxGeometry x="390" y="520" width="60" height="30" as="geometry" />
        </mxCell>
        <mxCell id="zcIFbP8Z36xk4Khot3Q5-18" value="About Us" style="rounded=1;whiteSpace=wrap;html=1;" vertex="1" parent="1">
          <mxGeometry x="390" y="660" width="90" height="40" as="geometry" />
        </mxCell>
        <mxCell id="zcIFbP8Z36xk4Khot3Q5-19" value="" style="verticalLabelPosition=bottom;shadow=0;dashed=0;align=center;html=1;verticalAlign=top;strokeWidth=1;shape=mxgraph.mockup.graphics.simpleIcon;strokeColor=#999999;fontSize=13;fontColor=#0066CC;" vertex="1" parent="1">
          <mxGeometry x="80" y="500" width="280" height="230" as="geometry" />
        </mxCell>
        <mxCell id="zcIFbP8Z36xk4Khot3Q5-20" value="&lt;h1&gt;Services&lt;/h1&gt;&lt;p&gt;Lorem ipsum dolor sit amet, consectetur adipisicing elit, sed do eiusmod tempor incididunt ut labore et dolore magna aliqua.&lt;/p&gt;" style="text;html=1;strokeColor=none;fillColor=none;spacing=5;spacingTop=-20;whiteSpace=wrap;overflow=hidden;rounded=0;" vertex="1" parent="1">
          <mxGeometry x="80" y="800" width="680" height="100" as="geometry" />
        </mxCell>
        <mxCell id="zcIFbP8Z36xk4Khot3Q5-21" value="" style="ellipse;whiteSpace=wrap;html=1;aspect=fixed;" vertex="1" parent="1">
          <mxGeometry x="50" y="880" width="200" height="200" as="geometry" />
        </mxCell>
        <mxCell id="zcIFbP8Z36xk4Khot3Q5-22" value="" style="ellipse;whiteSpace=wrap;html=1;aspect=fixed;" vertex="1" parent="1">
          <mxGeometry x="325" y="880" width="200" height="200" as="geometry" />
        </mxCell>
        <mxCell id="zcIFbP8Z36xk4Khot3Q5-23" value="" style="ellipse;whiteSpace=wrap;html=1;aspect=fixed;" vertex="1" parent="1">
          <mxGeometry x="600" y="880" width="200" height="200" as="geometry" />
        </mxCell>
        <mxCell id="zcIFbP8Z36xk4Khot3Q5-24" value="" style="ellipse;whiteSpace=wrap;html=1;aspect=fixed;" vertex="1" parent="1">
          <mxGeometry x="160" y="1180" width="200" height="200" as="geometry" />
        </mxCell>
        <mxCell id="zcIFbP8Z36xk4Khot3Q5-25" value="" style="ellipse;whiteSpace=wrap;html=1;aspect=fixed;" vertex="1" parent="1">
          <mxGeometry x="486" y="1180" width="200" height="200" as="geometry" />
        </mxCell>
        <mxCell id="zcIFbP8Z36xk4Khot3Q5-26" value="&lt;h1&gt;Service 1&lt;/h1&gt;&lt;p&gt;Lorem ipsum dolor sit amet, consectetur adipisicing elit,&lt;/p&gt;" style="text;html=1;strokeColor=none;fillColor=none;spacing=5;spacingTop=-20;whiteSpace=wrap;overflow=hidden;rounded=0;align=center;" vertex="1" parent="1">
          <mxGeometry x="60" y="1090" width="190" height="80" as="geometry" />
        </mxCell>
        <mxCell id="zcIFbP8Z36xk4Khot3Q5-27" value="&lt;h1&gt;Service 2&lt;/h1&gt;&lt;p&gt;Lorem ipsum dolor sit amet, consectetur adipisicing elit,&lt;/p&gt;" style="text;html=1;strokeColor=none;fillColor=none;spacing=5;spacingTop=-20;whiteSpace=wrap;overflow=hidden;rounded=0;align=center;" vertex="1" parent="1">
          <mxGeometry x="325" y="1090" width="190" height="80" as="geometry" />
        </mxCell>
        <mxCell id="zcIFbP8Z36xk4Khot3Q5-28" value="&lt;h1&gt;Service 3&lt;/h1&gt;&lt;p&gt;Lorem ipsum dolor sit amet, consectetur adipisicing elit,&lt;/p&gt;" style="text;html=1;strokeColor=none;fillColor=none;spacing=5;spacingTop=-20;whiteSpace=wrap;overflow=hidden;rounded=0;align=center;" vertex="1" parent="1">
          <mxGeometry x="605" y="1090" width="190" height="80" as="geometry" />
        </mxCell>
        <mxCell id="zcIFbP8Z36xk4Khot3Q5-29" value="&lt;h1&gt;Service 4&lt;/h1&gt;&lt;p&gt;Lorem ipsum dolor sit amet, consectetur adipisicing elit,&lt;/p&gt;" style="text;html=1;strokeColor=none;fillColor=none;spacing=5;spacingTop=-20;whiteSpace=wrap;overflow=hidden;rounded=0;align=center;" vertex="1" parent="1">
          <mxGeometry x="165" y="1400" width="190" height="80" as="geometry" />
        </mxCell>
        <mxCell id="zcIFbP8Z36xk4Khot3Q5-30" value="&lt;h1&gt;Service 5&lt;/h1&gt;&lt;p&gt;Lorem ipsum dolor sit amet, consectetur adipisicing elit,&lt;/p&gt;" style="text;html=1;strokeColor=none;fillColor=none;spacing=5;spacingTop=-20;whiteSpace=wrap;overflow=hidden;rounded=0;align=center;" vertex="1" parent="1">
          <mxGeometry x="491" y="1400" width="190" height="80" as="geometry" />
        </mxCell>
        <mxCell id="zcIFbP8Z36xk4Khot3Q5-31" value="" style="verticalLabelPosition=bottom;shadow=0;dashed=0;align=center;html=1;verticalAlign=top;strokeWidth=1;shape=mxgraph.mockup.graphics.simpleIcon;strokeColor=#999999;fontSize=13;fontColor=#0066CC;" vertex="1" parent="1">
          <mxGeometry x="430" y="1520" width="420" height="320" as="geometry" />
        </mxCell>
        <mxCell id="zcIFbP8Z36xk4Khot3Q5-32" value="&lt;h1&gt;Heading&lt;/h1&gt;&lt;p&gt;Lorem ipsum dolor sit amet, consectetur adipisicing elit, sed do eiusmod tempor incididunt ut labore et dolore magna aliqua.&lt;/p&gt;" style="text;html=1;strokeColor=none;fillColor=none;spacing=5;spacingTop=-20;whiteSpace=wrap;overflow=hidden;rounded=0;" vertex="1" parent="1">
          <mxGeometry x="60" y="1600" width="280" height="130" as="geometry" />
        </mxCell>
        <mxCell id="zcIFbP8Z36xk4Khot3Q5-34" value="" style="verticalLabelPosition=bottom;shadow=0;dashed=0;align=center;html=1;verticalAlign=top;strokeWidth=1;shape=mxgraph.mockup.graphics.simpleIcon;strokeColor=#999999;fontSize=13;fontColor=#0066CC;" vertex="1" parent="1">
          <mxGeometry x="5" y="1850" width="420" height="320" as="geometry" />
        </mxCell>
        <mxCell id="zcIFbP8Z36xk4Khot3Q5-35" value="&lt;h1&gt;Heading&lt;/h1&gt;&lt;p&gt;Lorem ipsum dolor sit amet, consectetur adipisicing elit, sed do eiusmod tempor incididunt ut labore et dolore magna aliqua.&lt;/p&gt;" style="text;html=1;strokeColor=none;fillColor=none;spacing=5;spacingTop=-20;whiteSpace=wrap;overflow=hidden;rounded=0;" vertex="1" parent="1">
          <mxGeometry x="510" y="1945" width="280" height="130" as="geometry" />
        </mxCell>
        <mxCell id="zcIFbP8Z36xk4Khot3Q5-36" value="" style="rounded=0;whiteSpace=wrap;html=1;" vertex="1" parent="1">
          <mxGeometry y="2200" width="850" height="290" as="geometry" />
        </mxCell>
        <mxCell id="zcIFbP8Z36xk4Khot3Q5-37" value="&lt;h2&gt;Opening Hours&amp;nbsp;&lt;/h2&gt;&lt;p&gt;Lorem ipsum dolor sit amet, consectetur adipisicing elit&lt;/p&gt;&lt;p&gt;sed do eiusmod tempor incididunt ut labore et dolore magna aliqua.&lt;br&gt;&lt;/p&gt;" style="text;html=1;strokeColor=none;fillColor=none;spacing=5;spacingTop=-20;whiteSpace=wrap;overflow=hidden;rounded=0;" vertex="1" parent="1">
          <mxGeometry x="20" y="2230" width="190" height="120" as="geometry" />
        </mxCell>
        <mxCell id="zcIFbP8Z36xk4Khot3Q5-39" value="&lt;h2&gt;Find Us&lt;/h2&gt;&lt;p&gt;Lorem ipsum dolor sit amet, consectetur adipisicing elit&lt;/p&gt;&lt;p&gt;sed do eiusmod tempor incididunt ut labore et dolore magna aliqua.&lt;br&gt;&lt;/p&gt;" style="text;html=1;strokeColor=none;fillColor=none;spacing=5;spacingTop=-20;whiteSpace=wrap;overflow=hidden;rounded=0;" vertex="1" parent="1">
          <mxGeometry x="340" y="2230" width="190" height="120" as="geometry" />
        </mxCell>
        <mxCell id="zcIFbP8Z36xk4Khot3Q5-40" value="&lt;h2&gt;Social Media&lt;/h2&gt;" style="text;html=1;strokeColor=none;fillColor=none;spacing=5;spacingTop=-20;whiteSpace=wrap;overflow=hidden;rounded=0;" vertex="1" parent="1">
          <mxGeometry x="620" y="2230" width="190" height="40" as="geometry" />
        </mxCell>
        <mxCell id="zcIFbP8Z36xk4Khot3Q5-41" value="" style="verticalLabelPosition=bottom;shadow=0;dashed=0;align=center;html=1;verticalAlign=top;strokeWidth=1;shape=mxgraph.mockup.graphics.simpleIcon;strokeColor=#999999;fontSize=13;fontColor=#0066CC;" vertex="1" parent="1">
          <mxGeometry x="800" y="2270" width="30" height="30" as="geometry" />
        </mxCell>
        <mxCell id="zcIFbP8Z36xk4Khot3Q5-42" value="" style="verticalLabelPosition=bottom;shadow=0;dashed=0;align=center;html=1;verticalAlign=top;strokeWidth=1;shape=mxgraph.mockup.graphics.simpleIcon;strokeColor=#999999;fontSize=13;fontColor=#0066CC;" vertex="1" parent="1">
          <mxGeometry x="745" y="2270" width="30" height="30" as="geometry" />
        </mxCell>
        <mxCell id="zcIFbP8Z36xk4Khot3Q5-43" value="" style="verticalLabelPosition=bottom;shadow=0;dashed=0;align=center;html=1;verticalAlign=top;strokeWidth=1;shape=mxgraph.mockup.graphics.simpleIcon;strokeColor=#999999;fontSize=13;fontColor=#0066CC;" vertex="1" parent="1">
          <mxGeometry x="630" y="2270" width="30" height="30" as="geometry" />
        </mxCell>
        <mxCell id="zcIFbP8Z36xk4Khot3Q5-44" value="" style="verticalLabelPosition=bottom;shadow=0;dashed=0;align=center;html=1;verticalAlign=top;strokeWidth=1;shape=mxgraph.mockup.graphics.simpleIcon;strokeColor=#999999;fontSize=13;fontColor=#0066CC;" vertex="1" parent="1">
          <mxGeometry x="686" y="2270" width="30" height="30" as="geometry" />
        </mxCell>
        <mxCell id="zcIFbP8Z36xk4Khot3Q5-45" value="Copyright @ 2023" style="text;html=1;strokeColor=none;fillColor=none;align=center;verticalAlign=middle;whiteSpace=wrap;rounded=0;" vertex="1" parent="1">
          <mxGeometry x="353" y="2450" width="145" height="30" as="geometry" />
        </mxCell>
        <mxCell id="zcIFbP8Z36xk4Khot3Q5-47" value="" style="line;strokeWidth=2;html=1;" vertex="1" parent="1">
          <mxGeometry x="80" y="2400" width="700" height="10" as="geometry" />
        </mxCell>
      </root>
    </mxGraphModel>
  </diagram>
</mxfile>
